<svg xmlns="http://www.w3.org/2000/svg" version="1.1" xmlns:xlink="http://www.w3.org/1999/xlink" xmlns:svgjs="http://svgjs.dev/svgjs" viewBox="0 0 800 800"><defs><linearGradient x1="50%" y1="0%" x2="50%" y2="100%" id="nnneon-grad"><stop stop-color="hsl(1.4, 100%, 67%)" stop-opacity="1" offset="0%"></stop><stop stop-color="hsl(167, 52%, 78%)" stop-opacity="1" offset="100%"></stop></linearGradient><filter id="nnneon-filter" x="-100%" y="-100%" width="400%" height="400%" filterUnits="objectBoundingBox" primitiveUnits="userSpaceOnUse" color-interpolation-filters="sRGB">
	<feGaussianBlur stdDeviation="16 8" x="0%" y="0%" width="100%" height="100%" in="SourceGraphic" edgeMode="none" result="blur"></feGaussianBlur></filter><filter id="nnneon-filter2" x="-100%" y="-100%" width="400%" height="400%" filterUnits="objectBoundingBox" primitiveUnits="userSpaceOnUse" color-interpolation-filters="sRGB">
	<feGaussianBlur stdDeviation="0 12" x="0%" y="0%" width="100%" height="100%" in="SourceGraphic" edgeMode="none" result="blur"></feGaussianBlur></filter></defs><g stroke-width="44" stroke="url(#nnneon-grad)" fill="none"><path d="M385.8109382136927 210.9624639688202C391.62397084993194 199.21608538469843 408.3760164263708 199.21608538469843 414.18904906261014 210.9624639688202L594.337653339875 574.9957174638523C599.5443702082275 585.5167999530805 591.8886442199778 597.8473313266284 580.1501809853064 597.8473313266284H219.84980629099647C208.11134305632487 597.8473313266284 200.45561706807524 585.5167999530805 205.66233393642784 574.9957174638523L385.8109382136927 210.9624639688202Z " filter="url(#nnneon-filter)"></path><path d="M515.8109382136927 210.9624639688202C521.623970849932 199.21608538469843 538.3760164263708 199.21608538469843 544.1890490626101 210.9624639688202L724.337653339875 574.9957174638523C729.5443702082275 585.5167999530805 721.8886442199778 597.8473313266284 710.1501809853064 597.8473313266284H349.84980629099647C338.11134305632487 597.8473313266284 330.45561706807524 585.5167999530805 335.66233393642784 574.9957174638523L515.8109382136927 210.9624639688202Z " filter="url(#nnneon-filter2)" opacity="0.57"></path><path d="M255.81093821369268 210.9624639688202C261.62397084993194 199.21608538469843 278.3760164263708 199.21608538469843 284.18904906261014 210.9624639688202L464.33765333987503 574.9957174638523C469.5443702082275 585.5167999530805 461.8886442199778 597.8473313266284 450.1501809853064 597.8473313266284H89.84980629099647C78.11134305632487 597.8473313266284 70.45561706807524 585.5167999530805 75.66233393642784 574.9957174638523L255.81093821369268 210.9624639688202Z " filter="url(#nnneon-filter2)" opacity="0.57"></path><path d="M385.8109382136927 210.9624639688202C391.62397084993194 199.21608538469843 408.3760164263708 199.21608538469843 414.18904906261014 210.9624639688202L594.337653339875 574.9957174638523C599.5443702082275 585.5167999530805 591.8886442199778 597.8473313266284 580.1501809853064 597.8473313266284H219.84980629099647C208.11134305632487 597.8473313266284 200.45561706807524 585.5167999530805 205.66233393642784 574.9957174638523L385.8109382136927 210.9624639688202Z "></path></g></svg>